<svg width="111" height="111" viewBox="0 0 111 111" fill="none" xmlns="http://www.w3.org/2000/svg">
<path d="M98.3513 100.181C81.4355 113.99 28.6253 113.99 12.0493 100.181C-4.86646 86.3717 -3.14333 27.3485 12.0493 11.8161C27.242 -3.71636 83.1587 -3.71636 98.3513 11.8161C113.544 27.3485 115.267 86.3717 98.3513 100.181Z" fill="#8DC640"/>
<g opacity="0.2">
<path opacity="0.2" d="M55.54 76.0086C40.3716 88.0948 23.4558 94.3078 7.55937 94.6475C-4.16275 74.6253 -1.76008 25.9651 12.0492 11.8161C24.4751 -0.949647 63.4761 -3.37659 85.9253 4.55951C91.4344 27.3485 80.0521 56.3262 55.54 76.0086Z" fill="white"/>
</g>
<path d="M87.9884 55.3068C87.9884 58.7531 85.2217 61.5198 81.7754 61.5198H61.0736V82.2216C61.0736 85.6679 58.3069 88.4346 54.8606 88.4346C51.4144 88.4346 48.6477 85.6679 48.6477 82.2216V61.5198H27.9459C24.4996 61.5198 21.7329 58.7531 21.7329 55.3068C21.7329 51.8606 24.4996 49.0939 27.9459 49.0939H48.6477V28.3921C48.6477 24.9458 51.4144 22.1791 54.8606 22.1791C58.3069 22.1791 61.0736 24.9458 61.0736 28.3921V49.0939H81.7754C85.2217 49.0939 87.9884 51.8606 87.9884 55.3068Z" fill="white"/>
</svg>
