<svg width="225" height="68" viewBox="0 0 225 68" fill="none" xmlns="http://www.w3.org/2000/svg">
<rect x="0.5" y="0.5" width="224" height="67" rx="33.5" fill="white" stroke="#9E00FF"/>
<path d="M34.164 45H26.568L32.4 22.5H43.524L49.356 45H41.76L40.932 41.436H34.992L34.164 45ZM37.764 29.412L36.288 35.712H39.6L38.16 29.412H37.764ZM50.0175 45V22.5H61.6815C63.8415 22.5 65.3775 22.92 66.2895 23.76C67.2255 24.6 67.6935 25.824 67.6935 27.432C67.6935 29.04 67.3935 30.288 66.7935 31.176C66.2175 32.04 65.4375 32.604 64.4535 32.868V33.084C67.3575 33.588 68.8095 35.568 68.8095 39.024C68.8095 40.824 68.3295 42.276 67.3695 43.38C66.4095 44.46 64.9335 45 62.9415 45H50.0175ZM60.0255 36.036H57.2175V39.708H59.9895C60.9975 39.708 61.5015 39.096 61.5015 37.872C61.5015 36.648 61.0095 36.036 60.0255 36.036ZM59.4855 27.432H57.2175V30.78H59.4495C60.3615 30.78 60.8175 30.228 60.8175 29.124C60.8175 27.996 60.3735 27.432 59.4855 27.432ZM82.4963 35.208V45H75.2963V22.5H82.4963V31.68H82.6403C82.6883 30.96 82.8083 30.384 83.0003 29.952L86.5283 22.5H94.3043L88.9043 33.552L94.4843 45H86.7083L83.0003 36.936C82.8083 36.504 82.6883 35.928 82.6403 35.208H82.4963ZM95.9161 45V22.5H103.116V45H95.9161ZM105.989 45V22.5H116.069C120.125 22.5 122.909 23.364 124.421 25.092C125.933 26.82 126.689 29.712 126.689 33.768C126.689 37.8 125.933 40.68 124.421 42.408C122.909 44.136 120.125 45 116.069 45H105.989ZM116.177 28.26H113.189V39.24H116.177C117.161 39.24 117.869 39.132 118.301 38.916C118.757 38.676 118.985 38.148 118.985 37.332V30.168C118.985 29.352 118.757 28.836 118.301 28.62C117.869 28.38 117.161 28.26 116.177 28.26ZM146.976 45H127.572V40.5L136.788 28.476L136.68 28.26H129.12L128.472 22.5H146.832V27L137.724 39.024L137.832 39.24H146.976V45Z" fill="#A027FF"/>
<circle cx="165" cy="20" r="9" fill="#00D1FF"/>
<circle cx="172" cy="41" r="9" fill="#FA00FF"/>
<circle cx="188" cy="23" r="9" fill="#FFD600"/>
</svg>
