<svg width="194" height="215" viewBox="0 0 194 215" fill="none" xmlns="http://www.w3.org/2000/svg">
<path d="M97 194C150.572 194 194 150.572 194 97C194 43.4284 150.572 0 97 0C43.4284 0 0 43.4284 0 97C0 150.572 43.4284 194 97 194Z" fill="#FFE861"/>
<path d="M69.9 177.1C68.1 175.6 66.2 174.8 65.7 175.4C65.2 176 66.3 177.7 68.2 179.2C70 180.7 71.9 181.5 72.4 180.9C72.9 180.3 71.8 178.6 69.9 177.1Z" fill="#D3A535"/>
<path d="M68 177.9L74 170L69.1 179.2L68 177.9Z" fill="#D3A535"/>
<path d="M85.8 142.6L84.5 130.9L89.8 131.3L91.3 141.3L85.8 142.6Z" fill="#FABE82"/>
<path d="M81.7999 214C81.7999 214 79.2999 178.9 81.0999 173.2L101.3 168C101.3 168 111.4 210.4 111.7 213.6L109.7 214.1C109.7 214.1 99.7999 183.4 97.5999 182.4C95.3999 181.4 91.2999 179.6 88.1999 184C85.9999 187 83.4999 213.7 83.4999 213.7L81.7999 214Z" fill="#5B4648"/>
<path d="M82.5999 178.9C92.9999 178.7 99.4999 176.7 102.3 173.5C102.2 173.1 101.3 168 101.3 168L81.0999 173.2C79.2999 178.9 81.7999 214 81.7999 214L82.9999 213.9C82.7999 209.8 80.8999 184.3 82.5999 178.9Z" fill="#473336"/>
<path d="M98.0999 179.9C96.5999 179.2 94.3999 179.6 92.0999 181.4C94.1999 181 96.1999 181.9 97.5999 182.5C99.7999 183.5 109.7 214.2 109.7 214.2L110.8 213.9C109.4 209.7 100.1 180.8 98.0999 179.9Z" fill="#473336"/>
<path d="M80.4999 177.6C79.7999 176.1 79.5999 147 80.8999 144.1C82.1999 141.2 91.8999 137.6 96.3999 140.8C98.9999 142.7 103.5 172.2 102.4 173.7C101.1 175.3 81.0999 178.8 80.4999 177.6Z" fill="#DDBFC1"/>
<path d="M87.2 177C86.6 175.7 82.3001 151.4 81.9001 142.7C81.4001 143.1 81.0001 143.5 80.9001 144C79.6001 146.9 79.9001 176 80.5001 177.5C80.7001 178 83.9 177.7 87.8 177.2C87.5 177.2 87.3 177.1 87.2 177Z" fill="#CC9FA3"/>
<path d="M95 140.1C102.1 141.9 103.5 152.9 108.5 154.8L107.4 158.5C98.3 151.3 98.1 144.7 92.7 142.9L95 140.1Z" fill="#DDBFC1"/>
<path d="M68.8 159.6C69.9 153 77.1 144.3 83.3 141.9L83.8 146.7C83.8 146.7 77.1 149.5 71.3 159.3L68.8 159.6Z" fill="#DDBFC1"/>
<path d="M72.9 157.6C72.7 156.6 71.2 156.1 69.6 156.4C68 156.7 67.5 158.3 67.7 159.3C67.9 160.3 68.6 160.3 70.3 160C71.9 159.7 73.1 158.6 72.9 157.6Z" fill="#C98D93"/>
<path d="M67.7 165.6C66.7 171.3 70.8 176.9 76.8 178C82.9 179.1 88.6 175.3 89.7 169.6C90.7 163.9 86.6 158.3 80.6 157.2C74.5 156.1 68.7 159.9 67.7 165.6Z" fill="#63AEBA"/>
<path d="M84.0001 162C83.8001 162.2 83.8 163.3 83.3 163C82.7 162.4 82.1 163.3 82.6 163.3C83 163.3 83.4001 163.5 83.4001 164C83.4001 164.6 82.6 165.2 82.6 165.5C82.6 165.6 82.7 165.7 82.7 165.9C82.7 166 82.6001 166.2 82.5001 166.2C82.2001 166.2 82 166 81.8 166C81.6 166 81.4001 166.2 81.4001 166.6C81.4001 167 81.6 167.3 81.6 167.7C81.6 168 81.3 169.1 81.3 169.3C81.3 170 82 169.7 82.2 170.1C82.4 170.4 82.4 170.8 82.7 170.8C83.6 170.7 84.7 170.2 84.7 169.3C84.7 168.7 84.5 168.9 84.3 168.6C84.3 168.4 84.2 168.2 84.2 168C84.2 167.4 84.5001 167.3 84.5001 166.9C84.5001 166.6 84.2 166.8 84.2 166.5C84.2 166.1 84.7 165.4 85.2 165.4C86.2 165.4 85.9 166 86.2 166C86.4 166 86.8 166.3 86.8 166.6C86.8 167.9 87.1 166.6 87.1 166.3C87.1 164.7 85.3 165.7 85.3 164.6C85.3 164.4 85.3001 164.1 85.5001 164.1C86.2001 164.1 85.7 163.7 86.2 163.7C86.6 163.7 86.9001 164.2 87.0001 164.2C87.1001 164.2 87.1 164.2 87.2 164.2C87.3 164.3 87.4001 164.5 87.5001 164.5C87.6001 164.5 87.9001 164.1 87.9001 163.8C87.9001 163.1 86.7001 162.9 87.5001 162.9C87.8001 162.9 88.3 163.4 88.3 164.1C88.3 165 87.6 166.2 87.6 166.7C87.6 167.2 88.3001 168.3 86.5001 169.1C85.5001 169.7 85.7 170.3 85.7 170.5C85.7 171.1 85.5001 171.6 85.5001 172.3C85.5001 172.8 85.6 173.2 86.1 173.2L88.4001 172.3C88.6001 172.2 88.8001 172.1 88.9001 172C89.3001 171.2 89.5 170.4 89.7 169.6C90.4 165.8 88.8 162 85.8 159.6C85.8 159.8 85.9001 160 85.9001 160.1C85.8001 161 84.5001 161.2 84.0001 162Z" fill="#428E96"/>
<path d="M69 169.8C69 169.6 68.9 169.4 68.9 169.2C68.9 168.7 69.3 168.7 69.3 168.3C69.3 167.9 68.5 167.4 68.5 166.5C68.5 165.5 69 165.9 69.3 165.8C69.7 165.5 69.6 164.7 70 164.7C70.1 164.7 70.2 164.7 70.3 164.7C70.6 164.7 70.7 164 70.7 163.7C70.7 162.6 70.1 162.4 71.3 163.6C71.4 163.4 71.5 163.1 71.5 162.9C71.5 162 70.7 161.2 69.9 160.8C68.7 162.1 67.9 163.8 67.6 165.6C67.2 167.6 67.5 169.6 68.3 171.3C68.3 171.1 68.2 171 68.2 170.8C68.3 170 69 170.6 69 169.8Z" fill="#EAE8A4"/>
<path d="M74.5999 175.5C74.0999 174.8 73.4999 174.3 73.0999 173.6C72.8999 173.3 72.9999 172.9 72.4999 172.9C72.0999 172.9 71.7999 173.3 71.3999 173.3C70.9999 173.3 70.7999 173 70.5999 173C70.3999 173 70.0999 173.4 69.5999 173.4C69.4999 173.4 69.4999 173.4 69.3999 173.4C70.8999 175.5 73.0999 177.1 75.6999 177.8C75.5999 177.7 75.5999 177.7 75.4999 177.6C75.1999 176.9 75.0999 176.2 74.5999 175.5Z" fill="#CCCC32"/>
<path d="M80.1 164.2C79.6 164.1 79.3 163.7 79.2 163.7C78.9 163.7 79 163.8 78.8 164C78.8 164 78.8 164 78.8 164.1C78.8 164.9 80.3 165.3 80.6 165.3C80.9 165.3 81.3 164.9 81.3 164.5C81.4 164.2 80.6 164.3 80.1 164.2Z" fill="#428E96"/>
<path d="M78.7999 165L78.6999 164.7C78.4999 164.7 78.3999 165.1 78.4999 165.3C78.4999 165.5 78.7999 165.9 79.1999 165.8C79.2999 165.8 79.2999 165.7 79.2999 165.6C79.2999 165.3 79.0999 165.1 78.7999 165Z" fill="#428E96"/>
<path d="M84.0999 161.9C83.8999 162.1 83.8999 163.2 83.3999 162.9C82.7999 162.3 82.1999 163.2 82.6999 163.2C83.0999 163.2 83.4999 163.4 83.4999 163.9C83.4999 164.5 82.6999 165.1 82.6999 165.4C82.6999 165.5 82.7999 165.6 82.7999 165.8C82.7999 165.9 82.6999 166.1 82.5999 166.1C82.2999 166.1 82.0999 165.9 81.8999 165.9C81.6999 165.9 81.4999 166.1 81.4999 166.5C81.4999 166.9 81.6999 167.2 81.6999 167.6C81.6999 167.9 81.3999 169 81.3999 169.2C81.3999 169.9 81.9999 169.6 82.2999 170C82.4999 170.3 82.4999 170.7 82.7999 170.7C83.6999 170.6 84.7999 170.1 84.7999 169.2C84.7999 168.6 84.5999 168.8 84.3999 168.5C84.3999 168.3 84.2999 168.1 84.2999 167.9C84.2999 167.3 84.5999 167.2 84.5999 166.8C84.5999 166.5 84.2999 166.7 84.2999 166.4C84.2999 166 84.7999 165.3 85.2999 165.3C86.2999 165.3 85.9999 165.9 86.2999 166C86.4999 166 86.8999 166.3 86.8999 166.6C86.8999 167.9 87.1999 166.6 87.1999 166.3C87.1999 164.7 85.3999 165.7 85.3999 164.6C85.3999 164.4 85.3999 164.1 85.5999 164.1C86.2999 164.1 85.7999 163.7 86.2999 163.7C86.6999 163.7 86.9999 164.2 87.0999 164.2C87.1999 164.2 87.1999 164.2 87.2999 164.2C87.3999 164.3 87.4999 164.5 87.5999 164.5C87.6999 164.5 87.9999 164.1 87.9999 163.8C87.9999 163.1 86.7999 162.9 87.5999 162.9C87.8999 162.9 88.3999 163.4 88.3999 164.1C88.3999 165 87.6999 166.2 87.6999 166.7C87.6999 167.2 88.3999 168.3 86.5999 169.1C85.5999 169.7 85.7999 170.3 85.7999 170.5C85.7999 171.1 85.5999 171.6 85.5999 172.3C85.5999 172.8 85.6999 173.2 86.1999 173.2L88.4999 172.3C88.6999 172.2 88.8999 172.1 88.9999 172C89.3999 171.2 89.5999 170.4 89.7999 169.6C90.4999 165.8 88.8999 162 85.8999 159.6C85.8999 159.8 85.9999 160 85.9999 160.1C85.8999 160.9 84.6999 161.1 84.0999 161.9Z" fill="#CCCC32"/>
<path d="M88.5999 162.8C88.5999 163.1 88.5 163.4 88.4 163.7C88.4 163.8 88.5 163.9 88.5 164.1C88.5 165 87.8 166.2 87.8 166.7C87.8 167.2 88.5 168.3 86.7 169.1C85.7 169.7 85.9 170.3 85.9 170.5C85.9 171.1 85.7 171.6 85.7 172.3C85.7 172.8 85.8 173.2 86.3 173.2L88.5999 172.3C88.7999 172.2 88.9999 172.1 89.0999 172C89.4999 171.2 89.7 170.4 89.9 169.6C90.2 167.2 89.6999 164.8 88.5999 162.8Z" fill="#D8BD80"/>
<path d="M79.4001 160.3C79.7001 160.6 79.8 162.8 81.7 162.3C82.5 162.2 82.9001 161 82.9001 160.8C82.9001 160.7 82.7 160.6 82.7 160.5C82.7 160.4 82.9001 160.4 82.9001 160.3C82.9001 160.2 82.9001 160.1 82.9001 160C82.9001 158.6 82.1 159.4 82.1 157.8C82.1 157.7 82.1 157.6 82.1 157.5C81.6 157.3 81.0001 157.2 80.5001 157.1C79.5001 156.9 78.4001 156.9 77.4001 156.9C77.3001 157 77.3 157.1 77.3 157.2C77.3 158.4 78.9001 159.7 79.4001 160.3Z" fill="#428E96"/>
<path d="M75.8001 163.4C75.7001 163.4 75.7001 163.5 75.6001 163.6H75.8001C75.8001 163.7 75.8001 163.8 75.8001 163.8C75.8001 164.1 76.0001 164.2 76.3001 164.2C76.5001 164.2 76.6001 164.1 76.6001 163.8C76.6001 163.4 76.3001 163.4 75.8001 163.4Z" fill="#428E96"/>
<path d="M74.2999 162.4C74.2999 162 74.2999 161.6 74.1999 161.2C74.1999 161.1 74.0999 161.1 74.0999 161C73.7999 160.8 73.2 161.5 73 161.9C72.7 162.6 72.5999 163.8 73.3999 164.2C75.1999 165.2 74.9999 163.1 74.2999 162.4Z" fill="#428E96"/>
<path d="M80.1999 164C79.6999 163.9 79.3999 163.5 79.2999 163.5C78.9999 163.5 79.0999 163.6 78.8999 163.8C78.8999 163.8 78.8999 163.8 78.8999 163.9C78.8999 164.7 80.3999 165.1 80.6999 165.1C80.9999 165.1 81.3999 164.7 81.3999 164.3C81.3999 164.1 80.6999 164.2 80.1999 164Z" fill="#CCCC32"/>
<path d="M78.9 164.9L78.8 164.6C78.6 164.6 78.5 165 78.6 165.2C78.6 165.4 78.9 165.8 79.3 165.7C79.4 165.7 79.4 165.6 79.4 165.5C79.4 165.2 79.2 165 78.9 164.9Z" fill="#CCCC32"/>
<path d="M79.4999 160.2C79.7999 160.5 79.8999 162.7 81.7999 162.2C82.5999 162.1 82.9999 160.9 82.9999 160.7C82.9999 160.6 82.7999 160.5 82.7999 160.4C82.7999 160.3 82.9999 160.3 82.9999 160.2C82.9999 160.1 82.9999 160 82.9999 159.9C82.9999 158.5 82.1999 159.3 82.1999 157.7C82.1999 157.6 82.1999 157.5 82.1999 157.4C81.6999 157.2 81.0999 157.1 80.5999 157C79.5999 156.8 78.4999 156.8 77.4999 156.8C77.3999 156.9 77.3999 157 77.3999 157.1C77.3999 158.3 78.9999 159.6 79.4999 160.2Z" fill="#A5A229"/>
<path d="M75.9 163.2C75.8 163.2 75.8 163.3 75.7 163.4H75.9C75.9 163.5 75.9 163.6 75.9 163.6C75.9 163.9 76.1 164 76.4 164C76.6 164 76.7 163.9 76.7 163.6C76.7 163.2 76.4 163.2 75.9 163.2Z" fill="#EAE8A4"/>
<path d="M74.4001 162.2C74.4001 161.8 74.4 161.4 74.3 161C74.3 160.9 74.2 160.9 74.2 160.8C73.9 160.6 73.3 161.3 73.1 161.7C72.8 162.4 72.7001 163.6 73.5001 164C75.3001 165 75.1001 162.9 74.4001 162.2Z" fill="#EAE8A4"/>
<path opacity="0.5" d="M80.6 157.2C74.5 156.1 68.8 159.9 67.7 165.6C66.7 171.3 70.8 176.9 76.8 178C82.9 179.1 88.6 175.3 89.7 169.6C90.8 163.9 86.7 158.3 80.6 157.2ZM89.1 168.5C88.2 173.6 83 177 77.6 176C72.2 175 68.5 170.1 69.4 165C70.3 159.9 75.5 156.5 80.9 157.5C86.3 158.5 90 163.4 89.1 168.5Z" fill="#519DA5"/>
<path opacity="0.6" d="M80.5999 157.2C76.7999 156.5 73.2 157.7 70.7 160C73.2 157.9 76.6 156.9 80.2 157.5C86.3 158.6 90.4 164.1 89.3 169.9C88.9 172.1 87.8 174 86.3 175.4C88 173.9 89.3 171.9 89.7 169.5C90.8 163.9 86.6999 158.3 80.5999 157.2Z" fill="#FFEEA8"/>
<path opacity="0.4" d="M70.3 161.5C68.4 165.7 71.2 170.9 76.4 173.3C81.6 175.6 87.4 174.2 89.3 170C91.2 165.8 88.4 160.6 83.2 158.2C77.9 155.9 72.2 157.4 70.3 161.5Z" fill="#FFEEA8"/>
<path opacity="0.5" d="M88.8001 163.4C88.7001 163.1 88.5001 162.9 88.3001 162.9C88.2001 162.9 88.2001 163.2 88.4001 163.6C88.5001 163.9 88.7001 164.1 88.9001 164.1C88.9001 164 88.9001 163.7 88.8001 163.4Z" fill="#519DA5"/>
<path d="M74.1 170.4C74.1 169.2 73.3 168.3 72.3 168.3C71.3 168.3 70.5 169.2 70.5 170.4C70.5 171.6 71.3 172.5 72.3 172.5C73.3 172.5 74.1 171.6 74.1 170.4Z" fill="#FFD255"/>
<path d="M74.4 157.6C69.6 156.4 65.1 164.7 71.6 170.6L72.4 170.4C72.4 170.4 66.4 164.5 72.8 158.6L74.4 157.6Z" fill="#FFD255"/>
<path d="M71.4999 170.1C71.4999 170.1 68.5999 173.6 69.4999 174.4C70.3999 175.2 72.5999 171.1 72.5999 171.1L71.4999 170.1Z" fill="#FFD255"/>
<path d="M72.6999 170.7C72.5999 170.2 72.2999 169.9 71.8999 169.9C71.4999 169.9 71.1999 170.3 71.2999 170.7C71.3999 171.2 71.6999 171.5 72.0999 171.5C72.3999 171.5 72.6999 171.1 72.6999 170.7Z" fill="#AA8321"/>
<path d="M88.9999 139.5L87.8999 142.3L90.2999 144L91.6999 140.8L88.9999 139.5Z" fill="#5B4648"/>
<path d="M93.9999 171.3L91.3999 169.2L90.0999 142.6H90.5999L95.0999 167.2L93.9999 171.3Z" fill="#5B4648"/>
<path d="M68.7999 158.5C67.7999 160.5 68.1999 166.7 74.8999 169.7L75.3999 168.8C75.3999 168.8 68.0999 164.8 71.1999 158.1C70.2999 157.1 69.2999 157.6 68.7999 158.5Z" fill="#FABE82"/>
<path d="M108.8 157.7C111.4 158.5 119.5 157.9 123.3 151L122.1 150.5C122.1 150.5 117 158 108.3 155.3C107 156.4 107.6 157.3 108.8 157.7Z" fill="#FABE82"/>
<path d="M110.1 156.4C110.1 154.7 109.2 153.4 108 153.4C106.8 153.4 105.9 154.7 105.9 156.4C105.9 158.1 106.8 159.4 108 159.4C109.2 159.4 110.1 158 110.1 156.4Z" fill="#C98D93"/>
<path d="M84.2 141.2L85.0999 138.2L89 139.5L87.7 143.7L84.2 141.2Z" fill="#FFDCDF"/>
<path d="M89 139.5L90.8 137.3L93.8 139.7L92.5 142L89 139.5Z" fill="#FFDCDF"/>
<path d="M125.5 149.9C126.1 148.9 126.4 147.7 125.3 147.3C124.3 146.9 123.6 147.6 122.9 148.8C122.2 150.2 121.3 151.3 122.4 151.7C123.5 152.1 124.7 151.3 125.5 149.9Z" fill="#FABE82"/>
<path d="M120.7 152.7L138.5 112.9H139L122.1 154.5C122.1 154.6 119.3 157.1 120.7 152.7Z" fill="#7F6146"/>
<path d="M124.3 149.1C123.8 148.5 123.3 148.3 123.1 148.5C122.9 148.8 123.1 149.5 123.5 150C124 150.6 124.5 150.8 124.7 150.6C125 150.4 124.8 149.7 124.3 149.1Z" fill="#FABE82"/>
<path d="M125.2 148.1C124.8 147.5 124.3 147.2 124.1 147.4C123.9 147.6 124 148.4 124.4 149C124.8 149.6 125.3 149.9 125.5 149.7C125.7 149.4 125.6 148.7 125.2 148.1Z" fill="#FABE82"/>
<path d="M125.9 146.9C125.6 146.2 125.1 145.8 124.9 146.1C124.6 146.3 124.6 147 124.9 147.7C125.2 148.4 125.7 148.8 125.9 148.5C126.2 148.3 126.2 147.6 125.9 146.9Z" fill="#FABE82"/>
<path d="M123.2 148.3C123.5 147.6 123.4 147 123 147C122.6 147 122.1 147.5 121.8 148.2C121.5 148.9 121.6 149.5 122 149.5C122.5 149.5 123 149 123.2 148.3Z" fill="#FABE82"/>
<path opacity="0.5" d="M87.6999 146.3C92.0999 145.4 95.9999 144.1 98.9999 142.5C98.0999 141.6 97.0999 140.9 95.8999 140.4C95.2999 140 94.5999 139.8 93.7999 139.6L90.8999 137.2L90.7999 137.3L89.8999 131.2L85.6999 130.9C85.3999 131 85.0999 131 84.7999 131.1H84.6999L85.4999 138.2L85.1999 138.1L84.3999 141.1H84.4999C83.8999 141.4 83.3999 141.7 82.8999 142C80.5999 143 78.2999 144.8 76.0999 147C79.2999 147.4 83.3999 147.2 87.6999 146.3Z" fill="#66493D"/>
<path d="M111.7 100.1C108.5 97.2 108.6 91.8 112 88.2C115.4 84.6 120.8 84 124.1 86.9C127.3 89.8 127.2 95.2 123.8 98.8C120.3 102.5 114.9 103.1 111.7 100.1Z" fill="#FABE82"/>
<path d="M120.6 103.6C122 92.6 125.5 58 85.5 38.9C85.5 38.9 85.4999 51.2 76.6999 49.6C67.8999 48 37.1 75.5 45.8 100.1C54.3 124.7 81.3 133 81.3 133L120.6 103.6Z" fill="#87412B"/>
<mask id="mask0" mask-type="alpha" maskUnits="userSpaceOnUse" x="44" y="38" width="78" height="95">
<path d="M120.5 103.8C121.9 92.8 125.5 58 85.5 38.9C85.5 38.9 85.4999 51.2 76.6999 49.6C67.8999 48 37.1 75.5 45.8 100.1C54.3 124.7 81.3 133 81.3 133L120.5 103.8Z" fill="url(#paint0_linear)"/>
</mask>
<g mask="url(#mask0)">
<path opacity="0.3" d="M120.5 103.8C121.9 92.8 125.5 58 85.5 38.9C85.5 38.9 85.4999 51.2 76.6999 49.6C67.8999 48 37.1 75.5 45.8 100.1C54.3 124.7 81.3 133 81.3 133L120.5 103.8Z" fill="url(#paint1_linear)"/>
<path d="M61 58C58.6 64.2 56.9 71.1 56.2 78.3C54.3 98.8 66.6 117.6 77.7 128.9C69.8 133.5 49.7 117.3 44.4 102.1C39 86.5 50.5 67.8 61 58Z" fill="#662C1D"/>
<path d="M61.4 78C68 64.8 91.5 53.7 107.2 68.2C122.8 82.6 122.4 118.9 108.1 128.9C95.8 137.5 79.9 135.9 66.3 126.3C57.7 120.3 49.3 102.4 61.4 78Z" fill="#FABE82"/>
</g>
<mask id="mask1" mask-type="alpha" maskUnits="userSpaceOnUse" x="55" y="61" width="64" height="74">
<path d="M61.4 78C68 64.8 91.5 53.7 107.2 68.2C122.8 82.6 122.4 118.9 108.1 128.9C95.8 137.5 79.9 135.9 66.3 126.3C57.7 120.3 49.3 102.4 61.4 78Z" fill="url(#paint2_linear)"/>
</mask>
<g mask="url(#mask1)">
<path opacity="0.3" d="M61.4 78C68 64.8 91.5 53.7 107.2 68.2C122.8 82.6 122.4 118.9 108.1 128.9C95.8 137.5 79.9 135.9 66.3 126.3C57.7 120.3 49.3 102.4 61.4 78Z" fill="url(#paint3_linear)"/>
<path d="M47.0999 107.3C47.3999 103.6 51.6999 101 56.6999 101.5C61.5999 102 65.2999 105.3 64.9999 109C64.6999 112.7 60.3999 115.3 55.3999 114.8C50.3999 114.3 46.6999 111 47.0999 107.3Z" fill="#FABE82"/>
<path d="M56.4999 102.5C56.8999 102.5 57.1999 102.6 57.5999 102.7C53.9999 102.8 50.9999 104.8 50.6999 107.6C50.3999 110.4 52.9999 113 56.5999 113.7C56.1999 113.7 55.8999 113.7 55.4999 113.7C51.3999 113.3 48.2999 110.5 48.4999 107.4C48.7999 104.3 52.3999 102.1 56.4999 102.5Z" fill="#EFA460"/>
<path d="M59 106C59.4 106 59.9 106.1 60.2 106.2C59.3 106.5 58.6 107.1 58.6 107.9C58.6 108.7 59.3 109.3 60.3 109.7C59.9 109.8 59.4 109.9 58.9 109.9C57.3 109.9 56 109 56 107.9C56 106.8 57.4 106 59 106Z" fill="#EFA460"/>
<path d="M62.4 110.3L54.2 75.5L55.5 100.1L59.5 111.6L62.4 110.3Z" fill="#662C1D"/>
<path d="M97 91.4L113 102.4C113 102.4 116.8 99 116.9 95.3L100.9 85C100.9 85 97 89 97 91.4Z" fill="#FFD0A6"/>
<path d="M68.5 93.9L86.4 106.5C86.4 106.5 90.2 103.1 90.3 99.4L72 87.4C72.1 87.4 68.5 91.5 68.5 93.9Z" fill="#FFD0A6"/>
<path d="M79.7 84.5C73.3 84 67.9 89.1 67.7 96C67.5 102.9 72.6 108.8 79.1 109.3C85.5 109.8 90.9 104.7 91.1 97.8C91.2 91 86.1 85 79.7 84.5ZM90.1 97.7C90 104.1 85.1 109 79.2 108.5C73.3 108 68.6 102.5 68.8 96C68.9 89.6 73.8 84.7 79.7 85.2C85.6 85.7 90.2 91.3 90.1 97.7Z" fill="#FFF0E6"/>
<path d="M107.2 82.7C101.4 82.2 96.6 86.9 96.4 93.1C96.3 99.3 100.9 104.7 106.7 105.1C112.5 105.6 117.3 100.9 117.5 94.7C117.6 88.5 113 83.1 107.2 82.7ZM116.6 94.6C116.5 100.4 112.1 104.7 106.7 104.3C101.4 103.9 97.2 98.9 97.3 93.1C97.4 87.3 101.9 83 107.2 83.4C112.5 83.8 116.7 88.8 116.6 94.6Z" fill="#FFF0E6"/>
<path d="M101 106.6C101.1 105.1 99.5001 103.7 97.5001 103.4C95.4001 103.1 93.6001 104.1 93.5001 105.5C93.4001 107 95.0001 108.4 97.0001 108.7C99.1001 109 100.9 108.1 101 106.6Z" fill="#EFA460"/>
<path d="M99.2999 106.9C99.3999 105.4 97.7999 104 95.7999 103.7C93.6999 103.4 91.8999 104.4 91.7999 105.8C91.6999 107.3 93.2999 108.7 95.2999 109C97.3999 109.3 99.1999 108.3 99.2999 106.9Z" fill="#FABE82"/>
<path d="M107.8 96.8C107.9 95.6 107.3 94.6 106.5 94.5C105.7 94.4 105 95.3 104.9 96.5C104.8 97.7 105.4 98.7 106.2 98.8C107 98.8 107.8 98 107.8 96.8Z" fill="#56473B"/>
<path d="M80.8999 100C80.9999 98.8 80.3999 97.8 79.5999 97.7C78.7999 97.6 78.0999 98.5 77.9999 99.7C77.8999 100.9 78.4999 101.9 79.2999 102C80.0999 102.1 80.7999 101.2 80.8999 100Z" fill="#56473B"/>
<path d="M80.7999 114.3C80.5999 113.1 78.4999 112.3 76.1999 112.6C73.8999 112.9 72.0999 114.1 72.2999 115.4C72.4999 116.6 74.5999 117.4 76.8999 117.1C79.2999 116.8 80.9999 115.6 80.7999 114.3Z" fill="#EFA460"/>
<path d="M114.6 106.5C114.3 105.4 112.4 105 110.4 105.5C108.4 106 107 107.3 107.3 108.4C107.6 109.5 109.5 109.9 111.5 109.4C113.6 108.8 114.9 107.5 114.6 106.5Z" fill="#EFA460"/>
<path d="M68.3 98L55.8 101.1L55.5 100.1L67.9 97L68.3 98Z" fill="#FFF0E6"/>
<path d="M96.4999 94.4L96.9999 95.5L90.3999 96.4L89.8999 95.4L96.4999 94.4Z" fill="#FFF0E6"/>
<path d="M89.2998 115.3L104.2 113.7C104.1 113.7 99.0998 136.8 89.2998 115.3Z" fill="#542C23"/>
<path d="M102.1 118.8C102.8 116.3 103.1 114 103.1 114L89.8999 115.3C90.5999 117.1 91.2999 118.5 91.9999 119.8L102.1 118.8Z" fill="#FFF1D2"/>
<path d="M89.8999 115.3C89.8999 114.9 89.5999 114.6 89.1999 114.6C88.7999 114.6 88.3999 114.8 88.3999 115.2C88.3999 115.6 88.6999 115.9 89.0999 115.9C89.4999 116 89.7999 115.7 89.8999 115.3Z" fill="#542C23"/>
<path d="M104.9 114.1C104.9 113.7 104.6 113.4 104.2 113.4C103.8 113.4 103.4 113.6 103.4 114C103.4 114.4 103.7 114.7 104.1 114.7C104.5 114.8 104.8 114.5 104.9 114.1Z" fill="#542C23"/>
</g>
<defs>
<linearGradient id="paint0_linear" x1="71.7288" y1="129.465" x2="101.2" y2="31.3294" gradientUnits="userSpaceOnUse">
<stop/>
<stop offset="1" stop-color="white"/>
</linearGradient>
<linearGradient id="paint1_linear" x1="71.7288" y1="129.465" x2="101.2" y2="31.3294" gradientUnits="userSpaceOnUse">
<stop stop-color="#C04B00"/>
<stop offset="1" stop-color="#B73400"/>
</linearGradient>
<linearGradient id="paint2_linear" x1="84.8542" y1="121.626" x2="84.2965" y2="135.641" gradientUnits="userSpaceOnUse">
<stop/>
<stop offset="1" stop-color="white"/>
</linearGradient>
<linearGradient id="paint3_linear" x1="84.8542" y1="121.626" x2="84.2965" y2="135.641" gradientUnits="userSpaceOnUse">
<stop stop-color="#C04B00"/>
<stop offset="1" stop-color="#B73400"/>
</linearGradient>
</defs>
</svg>
